<svg xmlns="http://www.w3.org/2000/svg" xmlns:xlink="http://www.w3.org/1999/xlink" width="500" zoomAndPan="magnify" viewBox="0 0 375 374.999991" height="500" preserveAspectRatio="xMidYMid meet" version="1.2"><defs/><g id="c925f6328c"><g style="fill:#000000;fill-opacity:1;"><g transform="translate(25.019534, 196.386623)"><path style="stroke:none" d="M 1.546875 -51.421875 L 9.828125 -51.421875 L 29.5625 -9.96875 L 45 -51.421875 L 54.046875 -51.421875 L 54.046875 -50.90625 C 52.566406 -50.90625 51.492188 -50.457031 50.828125 -49.5625 C 50.160156 -48.675781 49.738281 -47.226562 49.5625 -45.21875 C 49.394531 -43.21875 49.3125 -40.519531 49.3125 -37.125 L 49.3125 -14.296875 C 49.3125 -10.929688 49.394531 -8.238281 49.5625 -6.21875 C 49.738281 -4.195312 50.160156 -2.738281 50.828125 -1.84375 C 51.492188 -0.957031 52.566406 -0.515625 54.046875 -0.515625 L 54.046875 0 L 40.15625 0 L 40.15625 -0.515625 C 41.632812 -0.515625 42.707031 -0.957031 43.375 -1.84375 C 44.039062 -2.738281 44.457031 -4.195312 44.625 -6.21875 C 44.800781 -8.238281 44.890625 -10.929688 44.890625 -14.296875 L 44.890625 -49.71875 C 43.035156 -44.78125 41.195312 -39.859375 39.375 -34.953125 C 37.5625 -30.054688 35.710938 -25.046875 33.828125 -19.921875 C 31.941406 -14.796875 29.9375 -9.40625 27.8125 -3.75 L 27.359375 -3.75 C 25.742188 -7.21875 24.242188 -10.429688 22.859375 -13.390625 C 21.472656 -16.359375 20.148438 -19.195312 18.890625 -21.90625 C 17.640625 -24.613281 16.378906 -27.3125 15.109375 -30 C 13.847656 -32.695312 12.546875 -35.492188 11.203125 -38.390625 C 9.867188 -41.285156 8.414062 -44.410156 6.84375 -47.765625 L 6.78125 -25.71875 L 6.78125 -19.1875 C 6.78125 -15.445312 7.019531 -12.359375 7.5 -9.921875 C 7.988281 -7.492188 8.644531 -5.59375 9.46875 -4.21875 C 10.289062 -2.84375 11.210938 -1.878906 12.234375 -1.328125 C 13.265625 -0.785156 14.328125 -0.515625 15.421875 -0.515625 L 15.421875 0 L 1.546875 0 L 1.546875 -0.515625 C 3.015625 -0.515625 4.082031 -0.957031 4.75 -1.84375 C 5.425781 -2.738281 5.847656 -4.195312 6.015625 -6.21875 C 6.191406 -8.238281 6.28125 -10.929688 6.28125 -14.296875 L 6.28125 -37.125 C 6.28125 -40.519531 6.191406 -43.21875 6.015625 -45.21875 C 5.847656 -47.226562 5.425781 -48.675781 4.75 -49.5625 C 4.082031 -50.457031 3.015625 -50.90625 1.546875 -50.90625 Z M 1.546875 -51.421875 "/></g></g><g style="fill:#000000;fill-opacity:1;"><g transform="translate(80.61328, 196.386623)"><path style="stroke:none" d=""/></g></g><g style="fill:#000000;fill-opacity:1;"><g transform="translate(98.610933, 196.386623)"><path style="stroke:none" d=""/></g></g><g style="fill:#000000;fill-opacity:1;"><g transform="translate(116.608586, 196.386623)"><path style="stroke:none" d=""/></g></g><g style="fill:#000000;fill-opacity:1;"><g transform="translate(134.606239, 196.386623)"><path style="stroke:none" d=""/></g></g><g style="fill:#000000;fill-opacity:1;"><g transform="translate(152.613279, 196.386623)"><path style="stroke:none" d="M 1.546875 0 L 1.546875 -0.515625 C 3.015625 -0.515625 4.082031 -0.957031 4.75 -1.84375 C 5.425781 -2.738281 5.847656 -4.195312 6.015625 -6.21875 C 6.191406 -8.238281 6.28125 -10.929688 6.28125 -14.296875 L 6.28125 -37.125 C 6.28125 -40.519531 6.191406 -43.21875 6.015625 -45.21875 C 5.847656 -47.226562 5.425781 -48.675781 4.75 -49.5625 C 4.082031 -50.457031 3.015625 -50.90625 1.546875 -50.90625 L 1.546875 -51.421875 L 5.65625 -51.421875 C 8.363281 -51.421875 10.863281 -51.59375 13.15625 -51.9375 C 15.457031 -52.28125 17.738281 -52.453125 20 -52.453125 C 23.976562 -52.453125 27.421875 -51.726562 30.328125 -50.28125 C 33.242188 -48.84375 35.671875 -46.875 37.609375 -44.375 C 39.546875 -41.875 40.984375 -39.019531 41.921875 -35.8125 C 42.867188 -32.601562 43.34375 -29.238281 43.34375 -25.71875 C 43.34375 -22.1875 42.867188 -18.816406 41.921875 -15.609375 C 40.984375 -12.398438 39.546875 -9.546875 37.609375 -7.046875 C 35.671875 -4.546875 33.242188 -2.570312 30.328125 -1.125 C 27.421875 0.3125 23.976562 1.03125 20 1.03125 C 17.738281 1.03125 15.457031 0.859375 13.15625 0.515625 C 10.863281 0.171875 8.363281 0 5.65625 0 Z M 10.640625 -50.296875 L 10.640625 -1.125 C 12.148438 -0.6875 13.660156 -0.335938 15.171875 -0.078125 C 16.679688 0.179688 18.273438 0.3125 19.953125 0.3125 C 23.140625 0.3125 25.914062 -0.375 28.28125 -1.75 C 30.644531 -3.125 32.613281 -5.019531 34.1875 -7.4375 C 35.769531 -9.851562 36.953125 -12.628906 37.734375 -15.765625 C 38.523438 -18.898438 38.921875 -22.21875 38.921875 -25.71875 C 38.921875 -29.207031 38.523438 -32.519531 37.734375 -35.65625 C 36.953125 -38.789062 35.769531 -41.566406 34.1875 -43.984375 C 32.613281 -46.398438 30.644531 -48.296875 28.28125 -49.671875 C 25.914062 -51.046875 23.140625 -51.734375 19.953125 -51.734375 C 18.273438 -51.734375 16.679688 -51.613281 15.171875 -51.375 C 13.660156 -51.132812 12.148438 -50.773438 10.640625 -50.296875 Z M 10.640625 -50.296875 "/></g></g><g style="fill:#000000;fill-opacity:1;"><g transform="translate(199.047233, 196.386623)"><path style="stroke:none" d="M 1.546875 -9 C 1.546875 -11.125 2.039062 -13.035156 3.03125 -14.734375 C 4.03125 -16.429688 5.304688 -17.972656 6.859375 -19.359375 C 8.421875 -20.742188 10.078125 -22.007812 11.828125 -23.15625 C 13.578125 -24.3125 15.226562 -25.375 16.78125 -26.34375 C 18.34375 -27.320312 19.617188 -28.257812 20.609375 -29.15625 C 21.609375 -30.050781 22.109375 -30.941406 22.109375 -31.828125 C 22.109375 -32.304688 21.988281 -32.65625 21.75 -32.875 C 21.507812 -33.101562 21.21875 -33.21875 20.875 -33.21875 C 20.257812 -33.21875 19.6875 -32.941406 19.15625 -32.390625 C 18.625 -31.847656 18.097656 -31.222656 17.578125 -30.515625 C 17.066406 -29.816406 16.507812 -29.191406 15.90625 -28.640625 C 15.3125 -28.085938 14.65625 -27.8125 13.9375 -27.8125 C 13.21875 -27.8125 12.78125 -28.101562 12.625 -28.6875 C 12.46875 -29.269531 12.507812 -29.890625 12.75 -30.546875 C 13.539062 -32.597656 14.257812 -34.503906 14.90625 -36.265625 C 15.5625 -38.035156 16.207031 -39.753906 16.84375 -41.421875 C 17.476562 -43.085938 18.128906 -44.8125 18.796875 -46.59375 C 19.460938 -48.375 20.207031 -50.328125 21.03125 -52.453125 L 21.546875 -52.453125 L 38 -9 C 39.132812 -6.1875 40.195312 -4.066406 41.1875 -2.640625 C 42.1875 -1.222656 43.472656 -0.515625 45.046875 -0.515625 L 45.046875 0 L 28.171875 0 L 28.171875 -0.515625 C 29.992188 -0.515625 31.375 -0.753906 32.3125 -1.234375 C 33.257812 -1.710938 33.867188 -2.378906 34.140625 -3.234375 C 34.421875 -4.097656 34.457031 -5.09375 34.25 -6.21875 C 34.039062 -7.351562 33.695312 -8.570312 33.21875 -9.875 L 26.84375 -26.6875 C 27.050781 -25.039062 27.15625 -22.984375 27.15625 -20.515625 C 27.15625 -16.367188 26.507812 -12.664062 25.21875 -9.40625 C 23.9375 -6.15625 22.085938 -3.601562 19.671875 -1.75 C 17.253906 0.101562 14.332031 1.03125 10.90625 1.03125 C 8.914062 1.03125 7.222656 0.566406 5.828125 -0.359375 C 4.441406 -1.285156 3.378906 -2.507812 2.640625 -4.03125 C 1.910156 -5.5625 1.546875 -7.21875 1.546875 -9 Z M 5.90625 -9.96875 C 5.90625 -7.570312 6.625 -5.550781 8.0625 -3.90625 C 9.507812 -2.257812 11.484375 -1.4375 13.984375 -1.4375 C 16.140625 -1.4375 18.003906 -2.019531 19.578125 -3.1875 C 21.160156 -4.351562 22.472656 -5.878906 23.515625 -7.765625 C 24.566406 -9.648438 25.347656 -11.707031 25.859375 -13.9375 C 26.378906 -16.164062 26.640625 -18.328125 26.640625 -20.421875 C 26.640625 -22.335938 26.578125 -24.046875 26.453125 -25.546875 C 26.335938 -27.054688 26.039062 -28.566406 25.5625 -30.078125 L 19.328125 -46.484375 L 13.421875 -30.75 C 13.078125 -29.851562 12.984375 -29.222656 13.140625 -28.859375 C 13.296875 -28.503906 13.578125 -28.328125 13.984375 -28.328125 C 14.566406 -28.328125 15.128906 -28.601562 15.671875 -29.15625 C 16.222656 -29.707031 16.773438 -30.332031 17.328125 -31.03125 C 17.878906 -31.738281 18.453125 -32.363281 19.046875 -32.90625 C 19.648438 -33.457031 20.296875 -33.734375 20.984375 -33.734375 C 21.460938 -33.734375 21.863281 -33.566406 22.1875 -33.234375 C 22.507812 -32.910156 22.671875 -32.410156 22.671875 -31.734375 C 22.671875 -30.597656 22.269531 -29.554688 21.46875 -28.609375 C 20.664062 -27.671875 19.628906 -26.753906 18.359375 -25.859375 C 17.085938 -24.972656 15.734375 -24.03125 14.296875 -23.03125 C 12.859375 -22.039062 11.503906 -20.9375 10.234375 -19.71875 C 8.960938 -18.5 7.921875 -17.097656 7.109375 -15.515625 C 6.304688 -13.941406 5.90625 -12.09375 5.90625 -9.96875 Z M 5.90625 -9.96875 "/></g></g><g style="fill:#000000;fill-opacity:1;"><g transform="translate(244.0928, 196.386623)"><path style="stroke:none" d="M 25.96875 1.03125 C 22.78125 1.03125 19.796875 0.367188 17.015625 -0.953125 C 14.242188 -2.273438 11.8125 -4.144531 9.71875 -6.5625 C 7.625 -8.976562 5.992188 -11.8125 4.828125 -15.0625 C 3.660156 -18.320312 3.078125 -21.875 3.078125 -25.71875 C 3.078125 -29.582031 3.660156 -33.132812 4.828125 -36.375 C 5.992188 -39.613281 7.625 -42.441406 9.71875 -44.859375 C 11.8125 -47.273438 14.242188 -49.144531 17.015625 -50.46875 C 19.796875 -51.789062 22.78125 -52.453125 25.96875 -52.453125 C 28.914062 -52.453125 31.398438 -52.113281 33.421875 -51.4375 C 35.441406 -50.769531 37.0625 -49.894531 38.28125 -48.8125 C 39.5 -47.738281 40.378906 -46.566406 40.921875 -45.296875 C 41.472656 -44.035156 41.75 -42.820312 41.75 -41.65625 C 41.75 -39.875 41.394531 -38.257812 40.6875 -36.8125 C 39.988281 -35.375 39.09375 -34.070312 38 -32.90625 C 36.90625 -31.738281 35.726562 -30.648438 34.46875 -29.640625 C 33.21875 -28.628906 32.046875 -27.660156 30.953125 -26.734375 C 29.859375 -25.804688 28.957031 -24.878906 28.25 -23.953125 C 27.550781 -23.035156 27.203125 -22.0625 27.203125 -21.03125 C 27.203125 -20.238281 27.328125 -19.59375 27.578125 -19.09375 C 27.835938 -18.601562 28.226562 -18.132812 28.75 -17.6875 C 27.820312 -17.476562 27.019531 -17.613281 26.34375 -18.09375 C 25.675781 -18.582031 25.160156 -19.234375 24.796875 -20.046875 C 24.441406 -20.867188 24.265625 -21.675781 24.265625 -22.46875 C 24.265625 -23.976562 24.613281 -25.34375 25.3125 -26.5625 C 26.019531 -27.78125 26.921875 -28.898438 28.015625 -29.921875 C 29.117188 -30.953125 30.28125 -31.929688 31.5 -32.859375 C 32.71875 -33.785156 33.875 -34.71875 34.96875 -35.65625 C 36.0625 -36.601562 36.957031 -37.597656 37.65625 -38.640625 C 38.363281 -39.691406 38.71875 -40.832031 38.71875 -42.0625 C 38.71875 -45.113281 37.660156 -47.503906 35.546875 -49.234375 C 33.441406 -50.960938 30.25 -51.828125 25.96875 -51.828125 C 23.289062 -51.828125 20.835938 -51.175781 18.609375 -49.875 C 16.378906 -48.570312 14.453125 -46.742188 12.828125 -44.390625 C 11.203125 -42.046875 9.941406 -39.289062 9.046875 -36.125 C 8.160156 -32.957031 7.71875 -29.488281 7.71875 -25.71875 C 7.71875 -21.976562 8.195312 -18.515625 9.15625 -15.328125 C 10.113281 -12.140625 11.429688 -9.367188 13.109375 -7.015625 C 14.785156 -4.671875 16.726562 -2.847656 18.9375 -1.546875 C 21.15625 -0.242188 23.5 0.40625 25.96875 0.40625 C 28.257812 0.40625 30.226562 0.113281 31.875 -0.46875 C 33.519531 -1.050781 34.910156 -1.769531 36.046875 -2.625 C 37.179688 -3.476562 38.082031 -4.332031 38.75 -5.1875 C 39.414062 -6.050781 39.894531 -6.773438 40.1875 -7.359375 C 40.476562 -7.941406 40.625 -8.234375 40.625 -8.234375 L 41.1875 -8.234375 L 41.1875 -1.34375 C 39.132812 -0.6875 36.90625 -0.128906 34.5 0.328125 C 32.101562 0.796875 29.257812 1.03125 25.96875 1.03125 Z M 25.96875 1.03125 "/></g></g><g style="fill:#000000;fill-opacity:1;"><g transform="translate(286.875802, 196.386623)"><path style="stroke:none" d="M 1.546875 -50.90625 L 1.546875 -51.421875 L 15.421875 -51.421875 L 15.421875 -50.90625 C 13.953125 -50.90625 12.878906 -50.457031 12.203125 -49.5625 C 11.535156 -48.675781 11.117188 -47.226562 10.953125 -45.21875 C 10.785156 -43.21875 10.703125 -40.519531 10.703125 -37.125 L 10.703125 -14.296875 C 10.703125 -10.929688 10.785156 -8.238281 10.953125 -6.21875 C 11.117188 -4.195312 11.535156 -2.738281 12.203125 -1.84375 C 12.878906 -0.957031 13.953125 -0.515625 15.421875 -0.515625 L 15.421875 0 L 1.546875 0 L 1.546875 -0.515625 C 3.015625 -0.515625 4.082031 -0.957031 4.75 -1.84375 C 5.425781 -2.738281 5.847656 -4.195312 6.015625 -6.21875 C 6.191406 -8.238281 6.28125 -10.929688 6.28125 -14.296875 L 6.28125 -37.125 C 6.28125 -40.519531 6.191406 -43.21875 6.015625 -45.21875 C 5.847656 -47.226562 5.425781 -48.675781 4.75 -49.5625 C 4.082031 -50.457031 3.015625 -50.90625 1.546875 -50.90625 Z M 1.546875 -50.90625 "/></g></g><g style="fill:#000000;fill-opacity:1;"><g transform="translate(303.84502, 196.386623)"><path style="stroke:none" d="M 1.546875 -51.421875 L 10.546875 -51.421875 L 39.34375 -7.5 L 39.34375 -29.921875 C 39.34375 -34.929688 38.929688 -38.96875 38.109375 -42.03125 C 37.285156 -45.101562 36.210938 -47.347656 34.890625 -48.765625 C 33.566406 -50.191406 32.171875 -50.90625 30.703125 -50.90625 L 30.703125 -51.421875 L 44.578125 -51.421875 L 44.578125 -50.90625 C 43.109375 -50.90625 42.035156 -50.457031 41.359375 -49.5625 C 40.691406 -48.675781 40.273438 -47.226562 40.109375 -45.21875 C 39.941406 -43.21875 39.859375 -40.519531 39.859375 -37.125 L 39.859375 1.03125 L 39.34375 1.03125 L 6.78125 -48.546875 L 6.78125 -21.5 C 6.78125 -16.519531 7.191406 -12.488281 8.015625 -9.40625 C 8.835938 -6.320312 9.910156 -4.066406 11.234375 -2.640625 C 12.554688 -1.222656 13.953125 -0.515625 15.421875 -0.515625 L 15.421875 0 L 1.546875 0 L 1.546875 -0.515625 C 3.015625 -0.515625 4.082031 -0.957031 4.75 -1.84375 C 5.425781 -2.738281 5.847656 -4.195312 6.015625 -6.21875 C 6.191406 -8.238281 6.28125 -10.929688 6.28125 -14.296875 L 6.28125 -37.125 C 6.28125 -40.519531 6.191406 -43.21875 6.015625 -45.21875 C 5.847656 -47.226562 5.425781 -48.675781 4.75 -49.5625 C 4.082031 -50.457031 3.015625 -50.90625 1.546875 -50.90625 Z M 1.546875 -51.421875 "/></g></g><g style="fill:#000000;fill-opacity:1;"><g transform="translate(92.834331, 215.249986)"><path style="stroke:none" d="M 8.59375 -45.71875 C 8.59375 -48.34375 8.253906 -50.765625 7.578125 -52.984375 C 6.910156 -55.210938 6.117188 -57.410156 5.203125 -59.578125 C 4.296875 -61.742188 3.503906 -64 2.828125 -66.34375 C 2.160156 -68.695312 1.828125 -71.273438 1.828125 -74.078125 C 1.828125 -77.859375 2.816406 -81.195312 4.796875 -84.09375 C 6.785156 -86.988281 9.425781 -89.242188 12.71875 -90.859375 C 16.007812 -92.472656 19.570312 -93.28125 23.40625 -93.28125 C 27.3125 -93.28125 30.894531 -92.472656 34.15625 -90.859375 C 37.414062 -89.242188 40.035156 -86.988281 42.015625 -84.09375 C 44.003906 -81.195312 45 -77.859375 45 -74.078125 C 45 -71.273438 44.660156 -68.695312 43.984375 -66.34375 C 43.316406 -64 42.523438 -61.742188 41.609375 -59.578125 C 40.691406 -57.410156 39.898438 -55.210938 39.234375 -52.984375 C 38.566406 -50.765625 38.234375 -48.34375 38.234375 -45.71875 C 38.234375 -43.101562 38.566406 -40.679688 39.234375 -38.453125 C 39.898438 -36.234375 40.691406 -34.039062 41.609375 -31.875 C 42.523438 -29.707031 43.316406 -27.460938 43.984375 -25.140625 C 44.660156 -22.828125 45 -20.238281 45 -17.375 C 45 -13.59375 44.003906 -10.253906 42.015625 -7.359375 C 40.035156 -4.460938 37.414062 -2.207031 34.15625 -0.59375 C 30.894531 1.019531 27.3125 1.828125 23.40625 1.828125 C 19.570312 1.828125 16.007812 1.019531 12.71875 -0.59375 C 9.425781 -2.207031 6.785156 -4.460938 4.796875 -7.359375 C 2.816406 -10.253906 1.828125 -13.59375 1.828125 -17.375 C 1.828125 -20.238281 2.160156 -22.828125 2.828125 -25.140625 C 3.503906 -27.460938 4.296875 -29.707031 5.203125 -31.875 C 6.117188 -34.039062 6.910156 -36.234375 7.578125 -38.453125 C 8.253906 -40.679688 8.59375 -43.101562 8.59375 -45.71875 Z M 23.40625 -91.171875 C 20.539062 -91.171875 18.039062 -90.179688 15.90625 -88.203125 C 13.78125 -86.222656 12.132812 -83.644531 10.96875 -80.46875 C 9.8125 -77.300781 9.234375 -73.921875 9.234375 -70.328125 C 9.234375 -66.421875 9.535156 -62.363281 10.140625 -58.15625 C 10.753906 -53.957031 11.0625 -49.8125 11.0625 -45.71875 C 11.0625 -41.632812 10.753906 -37.503906 10.140625 -33.328125 C 9.535156 -29.148438 9.234375 -25.082031 9.234375 -21.125 C 9.234375 -17.59375 9.8125 -14.222656 10.96875 -11.015625 C 12.132812 -7.816406 13.78125 -5.226562 15.90625 -3.25 C 18.039062 -1.269531 20.539062 -0.28125 23.40625 -0.28125 C 26.269531 -0.28125 28.769531 -1.269531 30.90625 -3.25 C 33.039062 -5.226562 34.6875 -7.816406 35.84375 -11.015625 C 37.007812 -14.222656 37.59375 -17.59375 37.59375 -21.125 C 37.59375 -25.082031 37.285156 -29.148438 36.671875 -33.328125 C 36.066406 -37.503906 35.765625 -41.632812 35.765625 -45.71875 C 35.765625 -49.8125 36.066406 -53.957031 36.671875 -58.15625 C 37.285156 -62.363281 37.59375 -66.421875 37.59375 -70.328125 C 37.59375 -73.921875 37.007812 -77.300781 35.84375 -80.46875 C 34.6875 -83.644531 33.039062 -86.222656 30.90625 -88.203125 C 28.769531 -90.179688 26.269531 -91.171875 23.40625 -91.171875 Z M 23.40625 -91.171875 "/></g></g><g style="fill:#000000;fill-opacity:1;"><g transform="translate(96.425975, 210.749986)"><path style="stroke:none" d="M 7.28125 -38.734375 C 7.28125 -40.953125 6.992188 -43.003906 6.421875 -44.890625 C 5.859375 -46.773438 5.1875 -48.628906 4.40625 -50.453125 C 3.632812 -52.285156 2.960938 -54.195312 2.390625 -56.1875 C 1.828125 -58.175781 1.546875 -60.359375 1.546875 -62.734375 C 1.546875 -65.941406 2.382812 -68.769531 4.0625 -71.21875 C 5.738281 -73.664062 7.972656 -75.570312 10.765625 -76.9375 C 13.554688 -78.3125 16.578125 -79 19.828125 -79 C 23.128906 -79 26.160156 -78.3125 28.921875 -76.9375 C 31.691406 -75.570312 33.914062 -73.664062 35.59375 -71.21875 C 37.269531 -68.769531 38.109375 -65.941406 38.109375 -62.734375 C 38.109375 -60.359375 37.820312 -58.175781 37.25 -56.1875 C 36.6875 -54.195312 36.015625 -52.285156 35.234375 -50.453125 C 34.460938 -48.628906 33.789062 -46.773438 33.21875 -44.890625 C 32.65625 -43.003906 32.375 -40.953125 32.375 -38.734375 C 32.375 -36.503906 32.65625 -34.445312 33.21875 -32.5625 C 33.789062 -30.675781 34.460938 -28.816406 35.234375 -26.984375 C 36.015625 -25.160156 36.6875 -23.265625 37.25 -21.296875 C 37.820312 -19.335938 38.109375 -17.144531 38.109375 -14.71875 C 38.109375 -11.507812 37.269531 -8.679688 35.59375 -6.234375 C 33.914062 -3.785156 31.691406 -1.875 28.921875 -0.5 C 26.160156 0.863281 23.128906 1.546875 19.828125 1.546875 C 16.578125 1.546875 13.554688 0.863281 10.765625 -0.5 C 7.972656 -1.875 5.738281 -3.785156 4.0625 -6.234375 C 2.382812 -8.679688 1.546875 -11.507812 1.546875 -14.71875 C 1.546875 -17.144531 1.828125 -19.335938 2.390625 -21.296875 C 2.960938 -23.265625 3.632812 -25.160156 4.40625 -26.984375 C 5.1875 -28.816406 5.859375 -30.675781 6.421875 -32.5625 C 6.992188 -34.445312 7.28125 -36.503906 7.28125 -38.734375 Z M 19.828125 -77.21875 C 17.398438 -77.21875 15.28125 -76.378906 13.46875 -74.703125 C 11.664062 -73.023438 10.273438 -70.84375 9.296875 -68.15625 C 8.316406 -65.46875 7.828125 -62.601562 7.828125 -59.5625 C 7.828125 -56.257812 8.082031 -52.828125 8.59375 -49.265625 C 9.113281 -45.703125 9.375 -42.191406 9.375 -38.734375 C 9.375 -35.265625 9.113281 -31.757812 8.59375 -28.21875 C 8.082031 -24.6875 7.828125 -21.242188 7.828125 -17.890625 C 7.828125 -14.898438 8.316406 -12.046875 9.296875 -9.328125 C 10.273438 -6.617188 11.664062 -4.425781 13.46875 -2.75 C 15.28125 -1.070312 17.398438 -0.234375 19.828125 -0.234375 C 22.253906 -0.234375 24.367188 -1.070312 26.171875 -2.75 C 27.984375 -4.425781 29.378906 -6.617188 30.359375 -9.328125 C 31.335938 -12.046875 31.828125 -14.898438 31.828125 -17.890625 C 31.828125 -21.242188 31.566406 -24.6875 31.046875 -28.21875 C 30.535156 -31.757812 30.28125 -35.265625 30.28125 -38.734375 C 30.28125 -42.191406 30.535156 -45.703125 31.046875 -49.265625 C 31.566406 -52.828125 31.828125 -56.257812 31.828125 -59.5625 C 31.828125 -62.601562 31.335938 -65.46875 30.359375 -68.15625 C 29.378906 -70.84375 27.984375 -73.023438 26.171875 -74.703125 C 24.367188 -76.378906 22.253906 -77.21875 19.828125 -77.21875 Z M 19.828125 -77.21875 "/></g></g></g></svg>